{"title":"A Long Way Down 2014 BRRip XviD titler","uid":10498316,"size":977380144,"categoryP":"video","categoryS":"movies","magnet":"?xt=urn:btih:dac25a731745bf05ea86166be35ed0e99731f062&amp;dn=A+Long+Way+Down+2014+BRRip+XviD+titler&amp;tr=udp%3A%2F%2Ftracker.openbittorrent.com%3A80&amp;tr=udp%3A%2F%2Fopen.demonii.com%3A1337&amp;tr=udp%3A%2F%2Ftracker.coppersurfer.tk%3A6969&amp;tr=udp%3A%2F%2Fexodus.desync.com%3A6969","seeders":1,"leechers":0,"uploader":"movieZ.freak","files":3,"time":1404661546,"description":"SOURCE: Italian Bluray 720p x264 with english audio\n\n\n\n &lt;a href=&quot;\nhttp://www.imdb.com/title/tt0458413/&quot; rel=&quot;nofollow&quot; target=&quot;_NEW&quot;&gt;\nhttp://www.imdb.com/title/tt0458413/&lt;/a&gt;\n\n\n\n &lt;a href=&quot;\nhttp://www.rottentomatoes.com/m/a_long_way_down/&quot; rel=&quot;nofollow&quot; target=&quot;_NEW&quot;&gt;\nhttp://www.rottentomatoes.com/m/a_long_way_down/&lt;/a&gt;\n\n\n\n &lt;a href=&quot;\nhttp://en.wikipedia.org/wiki/A_Long_Way_Down_%28film%29&quot; rel=&quot;nofollow&quot; target=&quot;_NEW&quot;&gt;\nhttp://en.wikipedia.org/wiki/A_Long_Way_Down_%28film%29&lt;/a&gt;\n\n\n\n\n\n- SAMPLE: Yes\n\n\n- SUBTITLE: No, not yet!\n\n\n- LANGUAGE / AUDIO: English\n\n\n\n\n\nSCREENSHOTS:\n-------------------    &lt;a href=&quot;\nhttp://someimage.com/I9mn&quot; rel=&quot;nofollow&quot; target=&quot;_NEW&quot;&gt;\nhttp://someimage.com/I9mn&lt;/a&gt;\n\n\n\nNOTE:\n----------\n\n- No, this is not fake!!!\n\n\n- Italian bluray with english audio.\n\n\n- Ripped with english audio only.\n\n\n- Check the sample.\n\n\n- Enjoy!\n\n\n\nDIRECTOR: Pascal Chaumeil\n\n\n\nCAST: Pierce Brosnan, Toni Collette, Imogen Poots, Aaron Paul, Sam Neill, Rosamund Pike,...\n\n\nPLOT:\n-----------\nFour lost souls - a disgraced TV presenter, a foul-mouthed teen, an isolated single mother and a solipsistic muso - decide to end their lives on the same night, New Year's Eve. When this disillusioned quartet of strangers meet unintentionally at the same suicide hotspot, a London high-rise with the well-earned nickname Topper's Tower, they mutually agree to call off their plans for six weeks, forming an unconventional, dysfunctional family, becoming media sensations as the Topper House Four and searching together for the reasons to keep on living.\n\n\n************************************\n\n- Duration: 1h 36mn\n\n- Bit rate: 1197 Kbps\n\n- Res: 720 x 302\n\n- AR: 2.40:1\n\n- FPS: 24.000 fps\n\n- Audio: AC3, 2 channels, 128 Kbps\n\n************************************\n\n\nGeneral\n--------------\nFormat : AVI\nFormat/Info : Audio Video Interleave\nFile size : 920 MiB\nDuration : 1h 36mn\nOverall bit rate : 1334 Kbps\nWriting library : VirtualDub build 35491\n\n\nVideo\n--------------\nFormat : MPEG-4 Visual\nFormat profile : Advanced Simple@L5\nFormat settings, BVOP : 2\nFormat settings, QPel : No\nFormat settings, GMC : No warppoints\nFormat settings, Matrix : Default (H.263)\nCodec ID : XVID\nCodec ID/Hint : XviD\nDuration : 1h 36mn\nBit rate : 1197 Kbps\nWidth : 720 pixels\nHeight : 302 pixels\nDisplay aspect ratio : 2.40:1\nFrame rate : 24.000 fps\nColor space : YUV\nChroma subsampling : 4:2:0\nBit depth : 8 bits\nScan type : Progressive\nCompression mode : Lossy\nBits/(Pixel*Frame) : 0.229\nStream size : 825 MiB (90%)\nWriting library : XviD 65\n\n\nAudio\n------------\nFormat : AC-3\nFormat/Info : Audio Coding 3\nMode extension : CM (complete main)\nFormat settings, Endianness : Big\nCodec ID : 2000\nDuration : 1h 36mn\nBit rate mode : Constant\nBit rate : 128 Kbps\nChannel(s) : 2 channels\nChannel positions : Front: L R\nSampling rate : 48.0 KHz\nBit depth : 16 bits\nCompression mode : Lossy\nStream size : 88.3 MiB (10%)\nAlignment : Aligned on interleaves\nInterleave, duration : 42 ms (1.00 video frame)\nInterleave, preload duration : 512 ms","torrent":{"xt":"urn:btih:dac25a731745bf05ea86166be35ed0e99731f062","amp;dn":"A+Long+Way+Down+2014+BRRip+XviD+titler","amp;tr":["udp%3A%2F%2Ftracker.openbittorrent.com%3A80","udp%3A%2F%2Fopen.demonii.com%3A1337","udp%3A%2F%2Ftracker.coppersurfer.tk%3A6969","udp%3A%2F%2Fexodus.desync.com%3A6969"],"infoHash":"dac25a731745bf05ea86166be35ed0e99731f062","infoHashBuffer":{"type":"Buffer","data":[218,194,90,115,23,69,191,5,234,134,22,107,227,94,208,233,151,49,240,98]},"announce":[],"urlList":[]}}